<svg width="24" height="24" viewBox="0 0 24 24" fill="none" xmlns="http://www.w3.org/2000/svg">
<g id="for_you">
<mask id="mask0_1383_555" style="mask-type:alpha" maskUnits="userSpaceOnUse" x="0" y="0" width="24" height="24">
<rect id="Bounding box" width="24" height="24" fill="#E0E0E0"/>
</mask>
<g mask="url(#mask0_1383_555)">
<path id="for_you_2" d="M12 12C13.35 12 14.7583 11.8625 16.225 11.5875C17.6917 11.3125 18.95 10.95 20 10.5V20.5C19 20.95 17.7833 21.3125 16.35 21.5875C14.9167 21.8625 13.4667 22 12 22C10.5333 22 9.08333 21.8625 7.65 21.5875C6.21667 21.3125 5 20.95 4 20.5V10.5C5.05 10.95 6.30833 11.3125 7.775 11.5875C9.24167 11.8625 10.65 12 12 12ZM18 19V13.25C17.1667 13.4833 16.2042 13.6667 15.1125 13.8C14.0208 13.9333 12.9833 14 12 14C11.0167 14 9.97917 13.9333 8.8875 13.8C7.79583 13.6667 6.83333 13.4833 6 13.25V19C6.83333 19.3 7.79167 19.5417 8.875 19.725C9.95833 19.9083 11 20 12 20C13 20 14.0417 19.9083 15.125 19.725C16.2083 19.5417 17.1667 19.3 18 19ZM12 2C13.1 2 14.0417 2.39167 14.825 3.175C15.6083 3.95833 16 4.9 16 6C16 7.1 15.6083 8.04167 14.825 8.825C14.0417 9.60833 13.1 10 12 10C10.9 10 9.95833 9.60833 9.175 8.825C8.39167 8.04167 8 7.1 8 6C8 4.9 8.39167 3.95833 9.175 3.175C9.95833 2.39167 10.9 2 12 2ZM12 8C12.55 8 13.0208 7.80417 13.4125 7.4125C13.8042 7.02083 14 6.55 14 6C14 5.45 13.8042 4.97917 13.4125 4.5875C13.0208 4.19583 12.55 4 12 4C11.45 4 10.9792 4.19583 10.5875 4.5875C10.1958 4.97917 10 5.45 10 6C10 6.55 10.1958 7.02083 10.5875 7.4125C10.9792 7.80417 11.45 8 12 8Z" fill="#E0E0E0"/>
</g>
</g>
</svg>
